<svg xmlns="http://www.w3.org/2000/svg" viewBox="0 0 498.4 498.4"><path d="M235.6 213.6l28.8-28.8-11.2-11.2c7.2-11.2 12.8-24 15.2-36.8h16V96h-16c-2.4-12.8-8-25.6-15.2-36.8l11.2-10.4L235.6 20l-11.2 11.2c-11.2-7.2-24-12.8-36.8-15.2V0h-40.8v16c-12.8 2.4-25.6 8-36.8 15.2L98.8 20 70 48.8 81.2 60C74 71.2 68.4 84 66 96.8H50v40.8h16c2.4 12.8 8 25.6 15.2 36.8L70 184.8l28.8 28.8 11.2-11.2c11.2 7.2 24 12.8 36.8 15.2v16h40.8v-16c12.8-2.4 25.6-8 36.8-15.2l11.2 11.2zm-97.6-68c-16-16-16-41.6 0-57.6s41.6-16 57.6 0 16 41.6 0 57.6-41.6 16-57.6 0z" fill="#0dd396"/><path d="M253.2 173.6c7.2-11.2 12.8-24 15.2-36.8h16V96h-16c-2.4-12.8-8-25.6-15.2-36.8l11.2-10.4-13.6-13.6-54.4 53.6c15.2 16 15.2 41.6-.8 56.8-16 16-40.8 16-56.8.8L85.2 200l13.6 13.6 11.2-11.2c11.2 7.2 24 12.8 36.8 15.2v16h40.8v-16c12.8-2.4 25.6-8 36.8-15.2l11.2 11.2 28.8-28.8-11.2-11.2z" fill="#06ba9b"/><path d="M423.6 279.2l-34.4-34.4-13.6 13.6c-13.6-8.8-28-15.2-43.2-17.6v-19.2h-48v19.2c-15.2 3.2-29.6 8.8-43.2 17.6l-13.6-13.6-34.4 34.4 13.6 13.6c-8.8 13.6-15.2 28-17.6 43.2H170v48h19.2c3.2 15.2 8.8 29.6 17.6 43.2l-13.6 13.6 34.4 34.4 13.6-13.6c13.6 8.8 28 15.2 43.2 17.6v19.2h48v-19.2c15.2-3.2 29.6-8.8 43.2-17.6l13.6 13.6 34.4-34.4-13.6-13.6c8.8-13.6 15.2-28 17.6-43.2h19.2v-48h-19.2c-3.2-15.2-8.8-29.6-17.6-43.2l13.6-13.6zm-80.8 114.4c-18.4 19.2-49.6 19.2-68 0-18.4-18.4-18.4-49.6 0-68 19.2-18.4 49.6-18.4 68 0 18.4 19.2 18.4 49.6 0 68z" fill="#08446d"/><path d="M375.6 258.4c-13.6-8.8-28-15.2-43.2-17.6v-19.2h-48v19.2c-15.2 3.2-29.6 8.8-43.2 17.6l-13.6-13.6-16.8 16.8 64 64c19.2-18.4 48.8-18.4 67.2.8 18.4 18.4 18.4 48.8.8 67.2l64 64 16.8-16.8-13.6-13.6c8.8-13.6 15.2-28 17.6-43.2h19.2v-48h-19.2c-3.2-15.2-8.8-29.6-17.6-43.2l13.6-13.6-34.4-34.4-13.6 13.6z" fill="#00233f"/><path d="M448.4 155.2v-24h-9.6c-1.6-8-4.8-15.2-8.8-21.6l6.4-6.4-16.8-16.8-6.4 6.4c-6.4-4-13.6-7.2-21.6-8.8v-9.6h-24V84c-8 1.6-15.2 4.8-21.6 8.8l-6.4-6.4-18.4 16.8 6.4 6.4c-4 6.4-7.2 13.6-8.8 21.6h-9.6v24h9.6c1.6 8 4.8 15.2 8.8 21.6l-6.4 6.4L338 200l6.4-6.4c6.4 4 13.6 7.2 21.6 8.8v9.6h24v-9.6c8-1.6 15.2-4.8 21.6-8.8l6.4 6.4 16.8-16.8-4.8-6.4c4-6.4 7.2-13.6 8.8-21.6h9.6zm-69.6 12c-13.6 0-24-10.4-24-24s10.4-24 24-24 24 10.4 24 24-10.4 24-24 24z" fill="#d32a0f"/><path d="M438.8 131.2c-1.6-8-4.8-15.2-8.8-21.6l6.4-6.4-16.8-16.8-6.4 6.4c-6.4-4-13.6-7.2-21.6-8.8v-9.6h-12v44.8c12.8 0 24 11.2 24 24s-10.4 24-24 24V212h12v-9.6c8-1.6 15.2-4.8 21.6-8.8l6.4 6.4 16.8-16.8-6.4-6.4c4-6.4 7.2-13.6 8.8-21.6h9.6v-24h-9.6z" fill="#a00d05"/></svg>